<svg xmlns="http://www.w3.org/2000/svg" width="1600" height="900" viewBox="0 0 1600 900">
  <defs>
    <style>
      .title { font: 700 42px "Segoe UI", Arial, sans-serif; fill: #172033; }
      .subtitle { font: 400 20px "Segoe UI", Arial, sans-serif; fill: #526070; }
      .box-title { font: 700 23px "Segoe UI", Arial, sans-serif; fill: #172033; }
      .box-text { font: 400 17px "Segoe UI", Arial, sans-serif; fill: #526070; }
      .small { font: 400 15px "Segoe UI", Arial, sans-serif; fill: #526070; }
      .lane { fill: #f5f7fb; stroke: #d6deea; stroke-width: 2; }
      .box { fill: #ffffff; stroke: #b9c6d8; stroke-width: 2; rx: 8; }
      .accent-blue { fill: #dfefff; stroke: #6aa6e8; }
      .accent-green { fill: #e1f6ea; stroke: #62ba83; }
      .accent-gold { fill: #fff2cf; stroke: #d9a92f; }
      .accent-red { fill: #ffe6e1; stroke: #db715f; }
      .arrow { stroke: #526070; stroke-width: 3; fill: none; marker-end: url(#arrowhead); }
      .dashed { stroke-dasharray: 8 8; }
      .tag { fill: #172033; }
      .tag-text { font: 700 14px "Segoe UI", Arial, sans-serif; fill: #ffffff; }
    </style>
    <marker id="arrowhead" markerWidth="12" markerHeight="8" refX="11" refY="4" orient="auto">
      <polygon points="0 0, 12 4, 0 8" fill="#526070" />
    </marker>
  </defs>

  <rect width="1600" height="900" fill="#fbfcfe"/>
  <text x="70" y="70" class="title">Backup Dashboard Collector Flow</text>
  <text x="72" y="105" class="subtitle">FastAPI loads YAML config, schedules SNMP/REST collectors, then publishes visibility data to Elasticsearch and Prometheus.</text>

  <rect x="55" y="145" width="320" height="640" class="lane" rx="12"/>
  <rect x="415" y="145" width="750" height="640" class="lane" rx="12"/>
  <rect x="1205" y="145" width="340" height="640" class="lane" rx="12"/>

  <text x="80" y="185" class="box-title">1. Runtime</text>
  <text x="440" y="185" class="box-title">2. Collection Pipeline</text>
  <text x="1230" y="185" class="box-title">3. Visibility</text>

  <rect x="90" y="230" width="250" height="110" class="box accent-blue" rx="8"/>
  <text x="115" y="265" class="box-title">Kubernetes Pod</text>
  <text x="115" y="294" class="box-text">Deployment starts container</text>
  <text x="115" y="321" class="box-text">APP_CONFIG=/app/config/collector.yaml</text>

  <rect x="90" y="410" width="250" height="110" class="box" rx="8"/>
  <text x="115" y="445" class="box-title">FastAPI App</text>
  <text x="115" y="474" class="box-text">lifespan initializes service</text>
  <text x="115" y="501" class="box-text">routes expose status APIs</text>

  <rect x="455" y="230" width="260" height="110" class="box accent-gold" rx="8"/>
  <text x="480" y="265" class="box-title">Config Loader</text>
  <text x="480" y="294" class="box-text">YAML to AppConfig</text>
  <text x="480" y="321" class="box-text">TO_BE_FILLED becomes skip reason</text>

  <rect x="820" y="230" width="260" height="110" class="box accent-blue" rx="8"/>
  <text x="845" y="265" class="box-title">Collector Factory</text>
  <text x="845" y="294" class="box-text">DD/snmp -> DDSnmpCollector</text>
  <text x="845" y="321" class="box-text">i6000, NetWorker, ZFS -> REST collectors</text>

  <rect x="635" y="410" width="270" height="120" class="box accent-green" rx="8"/>
  <text x="660" y="445" class="box-title">Collector Scheduler</text>
  <text x="660" y="474" class="box-text">async task per collector</text>
  <text x="660" y="501" class="box-text">runs at configured second</text>

  <rect x="455" y="610" width="260" height="120" class="box" rx="8"/>
  <text x="480" y="645" class="box-title">SNMP Collectors</text>
  <text x="480" y="674" class="box-text">DXi, DD at :00</text>
  <text x="480" y="701" class="box-text">i6000 at :15</text>

  <rect x="820" y="610" width="260" height="120" class="box" rx="8"/>
  <text x="845" y="645" class="box-title">REST Collectors</text>
  <text x="845" y="674" class="box-text">Networker, ZFS at :30</text>
  <text x="845" y="701" class="box-text">JSON or text payload</text>

  <rect x="1235" y="230" width="275" height="115" class="box accent-green" rx="8"/>
  <text x="1260" y="265" class="box-title">Elasticsearch Writer</text>
  <text x="1260" y="294" class="box-text">bulk write CollectionResult</text>
  <text x="1260" y="321" class="box-text">backup-dashboard-YYYY.MM.DD</text>

  <rect x="1235" y="415" width="275" height="115" class="box accent-blue" rx="8"/>
  <text x="1260" y="450" class="box-title">FastAPI Endpoints</text>
  <text x="1260" y="479" class="box-text">/collectors, /run-once</text>
  <text x="1260" y="506" class="box-text">/healthz, /readyz</text>

  <rect x="1235" y="615" width="275" height="115" class="box accent-red" rx="8"/>
  <text x="1260" y="650" class="box-title">Prometheus Metrics</text>
  <text x="1260" y="679" class="box-text">collection_total</text>
  <text x="1260" y="706" class="box-text">duration, skipped, write_total</text>

  <path d="M215 340 L215 410" class="arrow"/>
  <path d="M340 465 L455 285" class="arrow"/>
  <path d="M715 285 L820 285" class="arrow"/>
  <path d="M950 340 L805 410" class="arrow"/>
  <path d="M715 530 L610 610" class="arrow"/>
  <path d="M905 530 L950 610" class="arrow"/>
  <path d="M1080 670 L1235 288" class="arrow"/>
  <path d="M905 470 L1235 472" class="arrow dashed"/>
  <path d="M770 530 L1235 672" class="arrow dashed"/>

  <rect x="618" y="768" width="385" height="54" class="tag" rx="8"/>
  <text x="643" y="802" class="tag-text">Result contract: success, error, and skipped all become CollectionResult documents</text>
</svg>
